# xmcd
#
# Track frame offsets:
#	150
#	9240
#	20037
#	28913
#	40384
#	48907
#	57339
#	67032
#	78704
#	87290
#	96401
#	108803
#	121092
#	132310
#	145012
#
# Disc length: 2096 seconds
#
# Revision: 1
# Processed by: cddbd v1.5.1PL2 Copyright (c) Steve Scherf et al.
# Submitted via: audiograbber 1.83.01
#
DISCID=ca082e0f
DTITLE=The Diamonds - Dance On
DYEAR=1998
DGENRE=Alternative
TTITLE0=Moonlight Walk
TTITLE1=Dance On
TTITLE2=The Rumble
TTITLE3=Mexican Bodega
TTITLE4=My Resistance Is Low
TTITLE5=Diamonds
TTITLE6=Shazam
TTITLE7=You Don't Have To Say You Love Me
TTITLE8=A Dream Of Glory
TTITLE9=Round And Round
TTITLE10=The Stranger
TTITLE11=Find Me A Golden Street
TTITLE12=Zambesi
TTITLE13=Golden Sea
TTITLE14=Love Is Blue
EXTD=THE Diamonds
EXTT0=
EXTT1=
EXTT2=
EXTT3=
EXTT4=
EXTT5=
EXTT6=
EXTT7=
EXTT8=
EXTT9=
EXTT10=
EXTT11=
EXTT12=
EXTT13=
EXTT14=
PLAYORDER=
